<?xml version="1.0" encoding="utf-8"?>
<!-- Generator: Adobe Illustrator 24.1.2, SVG Export Plug-In . SVG Version: 6.00 Build 0)  -->
<svg version="1.1" id="Camada_1" xmlns="http://www.w3.org/2000/svg" xmlns:xlink="http://www.w3.org/1999/xlink" x="0px" y="0px"
	 viewBox="0 0 43.9 43.9" style="enable-background:new 0 0 43.9 43.9;" xml:space="preserve">
<style type="text/css">
	.st0{fill:#28ABE3;}
	.st1{fill:#009FE3;}
</style>
<g id="XMLID_1018_">
	<path id="XMLID_1019_" class="st0" d="M21.91,0C16.04,0.01,10.72,2.32,6.79,6.08L3.63,2.92C2.29,1.58,0,2.53,0,4.42v11.87
		c0,1.17,0.95,2.12,2.12,2.12h11.87c1.89,0,2.84-2.29,1.5-3.63l-3.7-3.7c2.73-2.56,6.27-3.97,10.02-4.01c8.18-0.07,15.07,6.55,15,15
		c-0.07,8.02-6.57,14.74-14.87,14.74c-3.64,0-7.08-1.3-9.79-3.68c-0.42-0.37-1.05-0.35-1.45,0.05L7.2,36.7
		c-0.43,0.43-0.41,1.13,0.04,1.54c3.89,3.52,9.05,5.66,14.71,5.66c12.12,0,21.95-9.83,21.95-21.95C43.9,9.84,34.02-0.02,21.91,0z"/>
</g>
</svg>
