<?xml version="1.0" encoding="utf-8"?>
<!-- Generator: Adobe Illustrator 24.1.2, SVG Export Plug-In . SVG Version: 6.00 Build 0)  -->
<svg version="1.1" id="Camada_1" xmlns="http://www.w3.org/2000/svg" xmlns:xlink="http://www.w3.org/1999/xlink" x="0px" y="0px"
	 viewBox="0 0 43.9 43.9" style="enable-background:new 0 0 43.9 43.9;" xml:space="preserve">
<style type="text/css">
	.st0{fill:#28ABE3;}
	.st1{fill:#009FE3;}
	.st2{fill:#BCE4FA;}
	.st3{fill:#FFFFFF;}
</style>
<g id="XMLID_2477_">
	<path id="XMLID_2482_" class="st0" d="M43.9,27.64c-0.4,0.43-0.88,0.81-1.31,1.2c-0.52,0.48-1.06,0.94-1.61,1.39
		c-1.01,0.84-2.04,1.66-3.06,2.5c-0.2-0.51-0.63-0.94-1.08-1.24c-0.68-0.45-1.5-0.68-2.33-0.81c0.51-0.66,1.37-0.94,2.11-1.26
		c0.86-0.38,1.55-0.98,2.29-1.55c0.73-0.56,1.52-1.07,2.46-1.14C42.24,26.67,43.33,26.92,43.9,27.64z"/>
	<path id="XMLID_2481_" class="st0" d="M42.81,25.85c-0.07,0.22-0.23,0.41-0.36,0.6c-0.25-0.05-0.5-0.08-0.75-0.09
		c-1.04-0.06-1.97,0.44-2.78,1.04c-0.81,0.6-1.54,1.29-2.48,1.7c-0.87,0.38-1.8,0.71-2.35,1.53c0,0,0,0,0,0.01
		c-0.27-0.03-0.54-0.05-0.8-0.06c-0.09,0-0.18-0.01-0.27-0.01c0.61-0.67,1.38-1.17,2.15-1.64c0.85-0.53,1.66-1.07,2.44-1.7
		c0.78-0.63,1.58-1.29,2.53-1.64C40.99,25.28,42.13,25.18,42.81,25.85z"/>
	<path id="XMLID_2480_" class="st0" d="M39.69,25.37c-0.73,0.32-1.38,0.83-2,1.32c-0.41,0.32-0.81,0.65-1.23,0.96
		c-0.44,0.32-0.91,0.6-1.37,0.89c-0.93,0.57-1.87,1.17-2.57,2.03c-0.68,0-1.36,0.05-2.04,0.1c0.6-0.61,1.31-1.1,2.01-1.6
		c0.79-0.57,1.5-1.22,2.22-1.89c0.7-0.65,1.44-1.28,2.33-1.63C37.87,25.24,38.82,25.17,39.69,25.37z"/>
	<path id="XMLID_2479_" class="st0" d="M28.29,34.8c-0.04-0.01-0.09-0.01-0.11-0.02c-0.24-0.02-0.49-0.04-0.73-0.06l-0.61-0.03
		c-0.01-0.01-0.09,0.01-0.1,0c-0.33-0.01-0.66-0.01-0.99,0.01l-0.35,0.02c-0.3,0.02-0.61,0.05-0.91,0.09
		c-1.37,0.19-2.67,0.61-3.91,1.22c-0.21,0.11-0.4-0.21-0.19-0.32c1.38-0.68,2.84-1.14,4.37-1.31c1.17-0.13,2.34-0.11,3.51,0
		c0.02,0,0.04,0,0.07,0.01c0.17,0.02,0.34,0.04,0.52,0.06c1.15,0.13,2.28,0.35,3.43,0.45c1.16,0.1,2.38,0.13,3.49-0.26
		c0.87-0.3,2.14-0.71,1.86-1.82c-0.27-1.07-1.46-1.3-2.42-1.57c-1.29-0.37-2.65-0.39-3.98-0.35c-1.32,0.04-2.65-0.21-3.98-0.24
		c-1.25-0.03-2.52-0.52-3.61-1.16c-0.01-0.01-0.03-0.01-0.04-0.02c-0.01,0-0.01-0.01-0.02-0.01c0,0,0,0,0,0
		c-0.01,0-0.01-0.01-0.01-0.01c-1.8-1.24-3.75-2.85-6.04-2.93c-1.21-0.04-2.37,0.29-3.55,0.53c-0.58,0.12-1.17,0.24-1.76,0.25
		c-0.59,0.01-1.17,0-1.76,0c-1.37-0.01-2.72,0.07-4.01,0.56c-1.23,0.47-2.4,1.09-3.48,1.84c-1.08,0.76-2.84,1.61-2.95,2.58
		C-0.23,34.28,4.18,39,4.18,39c0.34,0.51,1.02,0.66,1.56,0.36c0,0,0.01,0,0.01-0.01c1.17-0.64,2.43-0.94,3.76-0.92
		c1.35,0.02,2.71,0.26,4.02,0.56c1.47,0.34,2.92,0.74,4.38,1.13c1.45,0.38,2.91,0.75,4.39,1c1.43,0.24,2.97,0.38,4.4,0.06
		c0.01,0,0.03,0,0.04-0.01c1.36-0.81,2.49-1.93,3.6-3.04c0.56-0.55,1.11-1.11,1.7-1.63c0.45-0.4,0.92-0.82,1.44-1.14
		c-1.43,0-2.87-0.29-4.29-0.48L28.29,34.8z"/>
	<path id="XMLID_2478_" class="st0" d="M30.6,29.93c0.01,0,0.02,0,0.03,0V29.9C30.62,29.91,30.61,29.92,30.6,29.93z"/>
</g>
<g id="XMLID_2465_">
	<g id="XMLID_2474_">
		<path id="XMLID_2476_" class="st0" d="M28.6,22.83c0,0.52-0.42,0.94-0.94,0.94H14.22c-0.52,0-0.94-0.42-0.94-0.94V4.6
			c0-0.52,0.42-0.94,0.94-0.94h13.44c0.52,0,0.94,0.42,0.94,0.94V22.83z"/>
		<path id="XMLID_2475_" class="st0" d="M41.53,22.83c0,0.52-0.42,0.94-0.94,0.94H27.15c-0.52,0-0.94-0.42-0.94-0.94V4.6
			c0-0.52,0.42-0.94,0.94-0.94h13.44c0.52,0,0.94,0.42,0.94,0.94V22.83z"/>
	</g>
	<path id="XMLID_2473_" class="st0" d="M29.08,22.91c0,1-0.81,1.82-1.82,1.82h-0.2c-1,0-1.82-0.81-1.82-1.82v-1.63
		c0-1,0.81-1.82,1.82-1.82h0.2c1,0,1.82,0.81,1.82,1.82V22.91z"/>
	<rect id="XMLID_2472_" x="13.76" y="4.62" class="st2" width="26.82" height="18.2"/>
	<g id="XMLID_2470_">
		<path id="XMLID_2471_" class="st0" d="M27.35,21.33c-4.59-1.31-7.82-1.31-12.41,0c0-5.77,0-11.53,0-17.29
			c4.6-2.04,7.81-1.99,12.41,0C27.35,9.8,27.35,15.57,27.35,21.33z"/>
	</g>
	<path id="XMLID_2469_" class="st0" d="M33.97,2.58c-0.15,0.07-0.29,0.18-0.54,0.33c-0.76,0.52-1.9,1.6-2.93,3.54
		c-0.82,1.53-1.4,3.28-1.83,5.03c-0.79,4.23-1.21,9.2-1.25,9.86c4.54-1.27,7.4-1.26,12.19,0.04c0-5.76,0-11.53,0-17.29
		C36.74,3.06,36.25,2.56,33.97,2.58z"/>
	<path id="XMLID_2468_" class="st3" d="M27.4,4.01c-0.07,0.03-0.05,0.06-0.12,0.09c0,5.76-0.13,11.53-0.13,17.29
		c0.05-0.01,0.01-0.03,0.01-0.04V4.09C27.16,4.06,27.38,4.03,27.4,4.01z"/>
	<path id="XMLID_2467_" class="st2" d="M33.49,2.92c0.23-0.16,0.42-0.27,0.56-0.33c-2.14,0.02-4.45,0.5-6.65,1.42
		c-0.02,0.03-0.24,0.05-0.24,0.08v17.26v0.07c0,0,0.17-0.03,0.17-0.08c0.05-0.74,0.15-5.31,1.27-9.86c0.43-1.75,1.06-3.5,1.88-5.03
		C31.52,4.51,32.73,3.44,33.49,2.92z"/>
</g>
</svg>
