<?xml version="1.0" encoding="utf-8"?>
<!-- Generator: Adobe Illustrator 24.1.2, SVG Export Plug-In . SVG Version: 6.00 Build 0)  -->
<svg version="1.1" id="Camada_1" xmlns="http://www.w3.org/2000/svg" xmlns:xlink="http://www.w3.org/1999/xlink" x="0px" y="0px"
	 viewBox="0 0 43.9 43.9" style="enable-background:new 0 0 43.9 43.9;" xml:space="preserve">
<style type="text/css">
	.st0{fill:#28ABE3;}
	.st1{fill:#009FE3;}
</style>
<g>
	<g>
		<path class="st0" d="M21.22,20.7c-0.47,0-0.93,0.04-1.39,0.12c-0.71,0.12-1.4,0.08-2.1-0.08c-0.38-0.09-0.69-0.29-0.97-0.55
			c-0.14-0.13-0.23-0.3-0.21-0.51c0.01-0.14,0.07-0.22,0.19-0.28c0.13-0.06,0.27-0.08,0.41-0.09c0.23-0.02,0.47-0.03,0.7-0.05
			c0.12-0.01,0.24-0.03,0.35-0.06c0.33-0.1,0.84-0.27,0.97-0.31c0.88-0.27,1.75-0.57,2.59-0.96c0.36-0.17,0.7-0.37,1.05-0.55
			c1.19-0.61,2.41-1.16,3.67-1.6c0.28-0.1,0.57-0.21,0.87-0.23c0.37-0.03,0.72-0.12,1.08-0.19c0.03-0.01,0.06-0.01,0.08-0.01
			c0.34-0.01,0.68-0.01,1.02,0.02c0.31,0.03,0.56,0.17,0.78,0.38c0.15,0.14,0.29,0.3,0.43,0.46c0.52,0.57,1.09,1.08,1.74,1.49
			c0.39,0.25,0.8,0.46,1.22,0.65c0.1,0.04,0.18,0.11,0.24,0.19c0.29,0.4,0.47,0.85,0.56,1.33c0.11,0.59,0.08,1.18-0.04,1.76
			c-0.03,0.15-0.12,0.27-0.15,0.42c-0.29,1.09-0.69,2.15-1.11,3.21c-0.18,0.46-0.37,0.91-0.51,1.38c-0.05,0.16-0.14,0.31-0.19,0.47
			c-0.15,0.4-0.21,0.82-0.24,1.25c-0.06,0.82-0.02,1.64,0.04,2.46c0,0.04,0.01,0.08,0.01,0.12c0,1.06,0,2.12-0.03,3.17
			c-0.01,0.45-0.03,0.89-0.11,1.33c-0.02,0.11-0.05,0.22-0.07,0.33c-0.02,0.13-0.1,0.25-0.22,0.33c-0.23,0.14-0.47,0.18-0.73,0.13
			c-0.16-0.03-0.28-0.14-0.36-0.27c-0.12-0.2-0.21-0.41-0.24-0.64c-0.09-0.57-0.16-1.14-0.22-1.71c-0.07-0.64-0.14-1.29-0.2-1.93
			c-0.05-0.58-0.11-1.16-0.13-1.74c-0.01-0.31-0.17-0.54-0.41-0.72c-0.15-0.11-0.27-0.08-0.4,0.06c-0.09,0.1-0.14,0.22-0.19,0.34
			c-0.12,0.29-0.18,0.59-0.24,0.9c-0.23,1.21-0.42,2.43-0.61,3.64c-0.14,0.88-0.27,1.75-0.42,2.63c-0.04,0.27-0.1,0.54-0.21,0.8
			c-0.06,0.15-0.14,0.29-0.25,0.41c-0.12,0.12-0.25,0.19-0.43,0.18c-0.12-0.01-0.25,0-0.37-0.02c-0.26-0.06-0.42-0.22-0.48-0.48
			c-0.03-0.12-0.03-0.24-0.03-0.36c0.02-0.4,0.06-0.8,0.1-1.2c0.05-0.5,0.11-1,0.17-1.49c0.07-0.57,0.13-1.14,0.2-1.72
			c0.05-0.44,0.11-0.89,0.15-1.33c0.05-0.45,0.11-0.91,0.14-1.36c0.01-0.16,0.01-0.31-0.01-0.47c-0.01-0.13-0.05-0.19-0.14-0.21
			c-0.11-0.02-0.18,0.04-0.24,0.12c-0.35,0.47-0.65,0.96-0.94,1.46c-1.13,1.93-2.23,3.88-3.26,5.87c-0.03,0.06-0.07,0.12-0.11,0.18
			c-0.09,0.13-0.22,0.2-0.38,0.21c-0.16,0.01-0.32,0.01-0.48,0c-0.14-0.01-0.27-0.06-0.36-0.16c-0.23-0.23-0.39-0.5-0.45-0.83
			c-0.02-0.12-0.01-0.23,0.04-0.34c1.07-2.36,2.09-4.74,3.17-7.09c0.11-0.23,0.18-0.46,0.22-0.71c0.01-0.07,0.01-0.14-0.01-0.21
			c-0.04-0.17-0.16-0.26-0.34-0.24c-0.08,0.01-0.15,0.05-0.22,0.09c-0.16,0.09-0.31,0.18-0.47,0.27c-0.06,0.03-0.1,0.08-0.15,0.13
			c-1.13,1.16-2.26,2.32-3.39,3.47c-0.42,0.43-0.85,0.86-1.3,1.27c-0.2,0.18-0.4,0.36-0.61,0.54c-0.02,0.02-0.04,0.03-0.06,0.05
			c-0.22,0.16-0.37,0.16-0.58,0c-0.15-0.12-0.29-0.25-0.41-0.4c-0.23-0.3-0.25-0.62-0.09-0.96c0.01-0.03,0.04-0.06,0.06-0.09
			c0.9-1.08,1.75-2.21,2.6-3.33c0.85-1.12,1.68-2.26,2.47-3.43c0.5-0.74,0.94-1.52,1.3-2.34c0.14-0.31,0.24-0.62,0.3-0.96
			c0.03-0.18,0.04-0.36,0.02-0.54c-0.04-0.35-0.22-0.6-0.55-0.75c-0.25-0.11-0.51-0.13-0.78-0.14C21.46,20.7,21.34,20.7,21.22,20.7z
			"/>
		<path class="st0" d="M21.35,22.45c0,0.04-0.02,0.07-0.03,0.1c-0.14,0.28-0.28,0.57-0.43,0.85c-0.04,0.07-0.08,0.14-0.13,0.2
			c-0.1,0.12-0.26,0.32-0.32,0.42c-1.02,1.52-2.01,3.07-3.21,4.45c-0.19,0.22-2.82,0.28-2.88,0.27c-0.43-0.12-0.8-0.34-1.13-0.64
			c-0.56-0.49-0.93-1.11-1.23-1.78c-0.03-0.07-0.79-3.04-1.02-4.27c-0.08-0.43-0.14-0.86-0.16-1.3c0-0.08-0.03-0.16-0.05-0.23
			c-0.2-0.7-0.53-1.34-0.89-1.96c-0.43-0.73-0.92-1.42-1.4-2.12c-0.61-0.89-1.21-1.78-1.74-2.72c-0.13-0.22-0.24-0.45-0.33-0.69
			c-0.07-0.18-0.06-0.35,0.03-0.52c0.17-0.32,0.55-0.5,0.9-0.43c0.14,0.03,0.25,0.1,0.32,0.23c0.08,0.14,0.19,0.25,0.3,0.37
			c0.63,0.69,1.23,1.41,1.84,2.13c0.5,0.58,0.98,1.18,1.49,1.75c0.18,0.21,0.4,0.35,0.65,0.45c0.09,0.04,0.19,0.06,0.29,0.05
			c0.16-0.01,0.23-0.08,0.25-0.24c0.01-0.18-0.02-0.35-0.05-0.52c-0.05-0.38-0.19-0.73-0.34-1.09c-0.54-1.35-1.17-2.66-1.8-3.97
			c-0.26-0.53-0.52-1.06-0.78-1.59C9.39,9.39,9.3,9.12,9.27,8.84c-0.01-0.1,0-0.2,0.02-0.3c0.04-0.15,0.14-0.26,0.29-0.3
			C9.65,8.23,9.7,8.2,9.75,8.16c0.25-0.2,0.64-0.18,0.83,0.17c0.15,0.29,0.3,0.59,0.45,0.88c0.77,1.52,1.53,3.04,2.34,4.54
			c0.18,0.33,0.37,0.67,0.57,0.99c0.12,0.19,0.27,0.33,0.44,0.47c0.06,0.05,0.13,0.09,0.21,0.11c0.12,0.03,0.19-0.01,0.23-0.13
			c0.02-0.07,0.02-0.14,0.02-0.21c0.01-0.44-0.02-0.87-0.04-1.31c-0.02-0.43-0.05-0.85-0.08-1.28c-0.05-0.66-0.09-1.33-0.14-1.99
			c-0.04-0.58-0.09-1.17-0.13-1.75c-0.05-0.61-0.09-1.22-0.17-1.83c-0.08-0.61,0.47-1.03,0.87-1.08c0.18-0.02,0.35,0.03,0.5,0.13
			c0.31,0.22,0.54,0.5,0.62,0.89c0.14,0.67,0.25,1.34,0.35,2.01c0.13,0.81,0.26,1.61,0.38,2.42c0.12,0.74,0.23,1.47,0.34,2.21
			c0.07,0.43,0.13,0.86,0.21,1.29c0.05,0.25,0.2,0.45,0.41,0.59c0.12,0.08,0.22,0.07,0.33-0.02c0.08-0.06,0.13-0.14,0.18-0.22
			c0.12-0.21,0.2-0.42,0.24-0.66c0.15-0.93,0.35-1.85,0.53-2.77c0.24-1.18,0.49-2.36,0.7-3.55c0.04-0.21,0.08-0.42,0.08-0.64
			c0-0.09,0.02-0.19,0.05-0.28c0.1-0.26,0.3-0.39,0.57-0.43c0.13-0.02,0.27-0.02,0.41,0c0.2,0.02,0.36,0.13,0.48,0.28
			c0.16,0.2,0.23,0.44,0.22,0.7c-0.01,0.36-0.04,0.71-0.06,1.07c-0.02,0.35-0.05,0.7-0.08,1.05c-0.05,0.74-0.1,1.48-0.14,2.22
			c-0.02,0.38-0.05,0.75-0.06,1.13c-0.04,0.98-0.09,1.95-0.07,2.93c0,0.23,0,0.46,0.03,0.69c0.01,0.06,0,0.1-0.07,0.13
			c-0.62,0.24-1.23,0.5-1.87,0.66c-0.13,0.03-0.8,0.19-1.13,0.26c-0.08,0.01-0.15,0.02-0.23,0.02c-0.33-0.01-0.66,0-0.99,0.07
			c-0.62,0.12-1.11,0.43-1.42,0.99c-0.13,0.23-0.18,0.49-0.25,0.74c-0.03,0.1-0.05,0.2-0.06,0.29c-0.03,0.25,0,0.49,0.11,0.71
			c0.16,0.31,0.38,0.58,0.63,0.81c0.24,0.23,0.52,0.4,0.78,0.61c0.4,0.32,0.87,0.45,1.36,0.5c1.01,0.12,2.02,0.09,3.02-0.11
			C21.3,22.44,21.33,22.43,21.35,22.45z"/>
		<g>
			<path class="st0" d="M8.97,27.09l0.13-0.02c0.11-0.02,0.22,0.05,0.24,0.17c0.23,1.09,0.83,1.94,1.31,2.47
				c0.37,0.41,0.73,0.7,0.93,0.85c0.09,0.07,0.11,0.19,0.05,0.28l-0.07,0.11c-0.07,0.1-0.21,0.13-0.3,0.06
				c-0.22-0.16-0.6-0.47-1.01-0.92c-0.36-0.4-0.66-0.82-0.9-1.25c-0.26-0.48-0.45-0.99-0.56-1.5C8.78,27.22,8.86,27.11,8.97,27.09z"
				/>
		</g>
		<g>
			<path class="st0" d="M10.36,26.65l0.13-0.03c0.11-0.03,0.22,0.04,0.25,0.14c0.32,1.06,1,1.86,1.53,2.34
				c0.41,0.38,0.79,0.64,1,0.76c0.09,0.06,0.13,0.18,0.08,0.28l-0.06,0.12c-0.06,0.11-0.19,0.15-0.3,0.08
				c-0.23-0.14-0.64-0.42-1.09-0.82c-0.39-0.36-0.73-0.75-1.01-1.17c-0.31-0.46-0.54-0.94-0.69-1.44
				C10.18,26.8,10.25,26.68,10.36,26.65z"/>
		</g>
		<g>
			<path class="st0" d="M36.86,23.03l-0.12-0.06c-0.1-0.05-0.15-0.17-0.11-0.27c0.42-1.03,0.39-2.07,0.29-2.78
				c-0.08-0.55-0.22-0.99-0.3-1.23c-0.04-0.1,0.01-0.22,0.12-0.26l0.12-0.05c0.11-0.05,0.24,0.01,0.28,0.12
				c0.09,0.26,0.24,0.73,0.33,1.32c0.08,0.53,0.1,1.05,0.05,1.54c-0.05,0.55-0.17,1.07-0.37,1.55
				C37.1,23.03,36.97,23.08,36.86,23.03z"/>
		</g>
		<g>
			<path class="st0" d="M35.46,22.63l-0.13-0.04c-0.11-0.04-0.16-0.15-0.13-0.26c0.32-1.06,0.2-2.1,0.04-2.8
				c-0.13-0.54-0.3-0.97-0.41-1.19c-0.05-0.1-0.01-0.22,0.09-0.27l0.12-0.06c0.11-0.06,0.24-0.01,0.29,0.1
				c0.11,0.25,0.3,0.7,0.44,1.29c0.13,0.52,0.19,1.03,0.19,1.53c0,0.55-0.08,1.08-0.23,1.58C35.7,22.61,35.57,22.67,35.46,22.63z"/>
		</g>
	</g>
	<g id="XMLID_1_">
		<g id="XMLID_2_">
			<path id="XMLID_3_" class="st1" d="M21.95,43.9C9.85,43.9,0,34.05,0,21.95S9.85,0,21.95,0S43.9,9.85,43.9,21.95
				S34.05,43.9,21.95,43.9z M21.95,2.51c-10.72,0-19.44,8.72-19.44,19.44c0,10.72,8.72,19.44,19.44,19.44
				c10.72,0,19.44-8.72,19.44-19.44C41.39,11.23,32.67,2.51,21.95,2.51z"/>
		</g>
	</g>
</g>
</svg>
