<?xml version="1.0" encoding="utf-8"?>
<!-- Generator: Adobe Illustrator 24.1.2, SVG Export Plug-In . SVG Version: 6.00 Build 0)  -->
<svg version="1.1" id="Camada_1" xmlns="http://www.w3.org/2000/svg" xmlns:xlink="http://www.w3.org/1999/xlink" x="0px" y="0px"
	 viewBox="0 0 43.9 43.9" style="enable-background:new 0 0 43.9 43.9;" xml:space="preserve">
<style type="text/css">
	.st0{fill:#28ABE3;}
	.st1{fill:#009FE3;}
</style>
<path class="st0" d="M21.95,0C9.83,0,0,9.83,0,21.95C0,34.08,9.83,43.9,21.95,43.9S43.9,34.08,43.9,21.95C43.9,9.83,34.07,0,21.95,0
	z M21.95,9.74c2.05,0,3.72,1.66,3.72,3.72s-1.66,3.72-3.72,3.72s-3.72-1.66-3.72-3.72S19.9,9.74,21.95,9.74z M26.91,32.22
	c0,0.59-0.48,1.06-1.06,1.06h-7.79c-0.59,0-1.06-0.48-1.06-1.06v-2.12c0-0.59,0.48-1.06,1.06-1.06h1.06v-5.66h-1.06
	c-0.59,0-1.06-0.48-1.06-1.06v-2.12c0-0.59,0.48-1.06,1.06-1.06h5.66c0.59,0,1.06,0.48,1.06,1.06v8.85h1.06
	c0.59,0,1.06,0.48,1.06,1.06V32.22z"/>
</svg>
