<?xml version="1.0" encoding="utf-8"?>
<!-- Generator: Adobe Illustrator 24.1.2, SVG Export Plug-In . SVG Version: 6.00 Build 0)  -->
<svg version="1.1" id="Camada_1" xmlns="http://www.w3.org/2000/svg" xmlns:xlink="http://www.w3.org/1999/xlink" x="0px" y="0px"
	 viewBox="0 0 43.9 43.9" style="enable-background:new 0 0 43.9 43.9;" xml:space="preserve">
<style type="text/css">
	.st0{fill:#28ABE3;}
	.st1{fill:#009FE3;}
</style>
<path class="st0" d="M21.95,21.95c6.06,0,10.97-4.91,10.97-10.98S28.01,0,21.95,0S10.98,4.91,10.98,10.98S15.89,21.95,21.95,21.95z
	 M29.63,24.69H28.2c-1.9,0.87-4.02,1.37-6.25,1.37s-4.34-0.5-6.25-1.37h-1.43c-6.36,0-11.52,5.16-11.52,11.52v3.57
	c0,2.27,1.84,4.12,4.12,4.12h30.18c2.27,0,4.12-1.84,4.12-4.12v-3.57C41.16,29.86,35.99,24.69,29.63,24.69z"/>
</svg>
