<?xml version="1.0" encoding="utf-8"?>
<!-- Generator: Adobe Illustrator 24.1.2, SVG Export Plug-In . SVG Version: 6.00 Build 0)  -->
<svg version="1.1" id="Camada_1" xmlns="http://www.w3.org/2000/svg" xmlns:xlink="http://www.w3.org/1999/xlink" x="0px" y="0px"
	 viewBox="0 0 126.97 43.9" style="enable-background:new 0 0 126.97 43.9;" xml:space="preserve">
<style type="text/css">
	.st0{fill:#28ABE3;}
	.st1{fill:#009FE3;}
	.st2{fill:#BCE4FA;}
	.st3{fill:#FFFFFF;}
	.st4{fill:#EDEDED;}
</style>
<g id="XMLID_1244_">
	<g id="XMLID_1468_">
		<g id="XMLID_1469_">
			<g id="XMLID_1482_">
				<path id="XMLID_1487_" class="st3" d="M48.96,28.38c-0.45,0.48-0.98,0.9-1.46,1.34c-0.59,0.53-1.19,1.05-1.79,1.55
					c-1.13,0.94-2.28,1.85-3.41,2.79c-0.22-0.57-0.7-1.05-1.2-1.38c-0.76-0.5-1.68-0.76-2.6-0.9c0.57-0.74,1.53-1.04,2.35-1.41
					c0.96-0.42,1.73-1.09,2.55-1.73c0.81-0.63,1.69-1.2,2.74-1.27C47.11,27.3,48.32,27.58,48.96,28.38z"/>
				<path id="XMLID_1486_" class="st3" d="M47.74,26.39c-0.08,0.24-0.25,0.46-0.4,0.67c-0.28-0.06-0.56-0.09-0.83-0.1
					c-1.16-0.07-2.2,0.49-3.1,1.16c-0.91,0.67-1.72,1.44-2.76,1.9c-0.97,0.43-2.01,0.79-2.62,1.71c0,0,0,0.01,0,0.01
					c-0.3-0.03-0.6-0.05-0.9-0.07c-0.1,0-0.2-0.01-0.3-0.01c0.68-0.74,1.54-1.3,2.4-1.83c0.95-0.59,1.85-1.2,2.72-1.9
					c0.87-0.7,1.76-1.44,2.82-1.83C45.71,25.74,46.98,25.63,47.74,26.39z"/>
				<path id="XMLID_1485_" class="st3" d="M44.27,25.84c-0.81,0.36-1.54,0.93-2.23,1.48c-0.45,0.36-0.9,0.73-1.37,1.07
					c-0.49,0.36-1.01,0.67-1.53,0.99c-1.04,0.64-2.09,1.31-2.86,2.26c-0.76,0.01-1.52,0.06-2.28,0.11c0.67-0.67,1.47-1.22,2.24-1.78
					c0.89-0.64,1.68-1.36,2.47-2.1c0.78-0.73,1.6-1.43,2.6-1.82C42.23,25.7,43.3,25.63,44.27,25.84z"/>
				<path id="XMLID_1484_" class="st3" d="M31.55,36.37c-0.05-0.01-0.1-0.01-0.12-0.02c-0.27-0.02-0.54-0.05-0.82-0.06l-0.68-0.03
					c-0.01-0.01-0.1,0.01-0.11,0c-0.37-0.01-0.74-0.01-1.1,0.01l-0.39,0.02c-0.34,0.02-0.68,0.06-1.02,0.1
					c-1.53,0.22-2.98,0.68-4.37,1.37c-0.24,0.12-0.45-0.24-0.21-0.36c1.54-0.76,3.16-1.27,4.87-1.46c1.3-0.14,2.61-0.12,3.91,0.01
					c0.02,0,0.05,0,0.07,0.01c0.19,0.02,0.38,0.04,0.57,0.06c1.28,0.15,2.54,0.39,3.83,0.5c1.29,0.11,2.65,0.14,3.9-0.29
					c0.97-0.34,2.39-0.8,2.07-2.03c-0.3-1.2-1.62-1.45-2.7-1.75c-1.44-0.41-2.95-0.43-4.44-0.39c-1.48,0.04-2.96-0.23-4.43-0.27
					c-1.39-0.04-2.81-0.59-4.03-1.29c-0.01-0.01-0.03-0.01-0.05-0.02c-0.01,0-0.01-0.01-0.02-0.01c0,0,0,0-0.01,0
					c-0.01,0-0.01-0.01-0.01-0.01c-2.01-1.39-4.18-3.18-6.74-3.26c-1.35-0.04-2.65,0.32-3.96,0.59c-0.64,0.13-1.3,0.26-1.96,0.28
					c-0.65,0.01-1.31,0-1.96,0c-1.52-0.01-3.03,0.07-4.47,0.63c-1.37,0.53-2.68,1.21-3.88,2.06c-1.21,0.85-3.16,1.79-3.29,2.88
					c-0.26,2.18,4.65,7.45,4.65,7.45c0.38,0.57,1.13,0.73,1.74,0.4c0,0,0.01,0,0.01-0.01c1.3-0.71,2.71-1.05,4.19-1.02
					c1.51,0.02,3.02,0.29,4.49,0.62c1.64,0.37,3.26,0.83,4.89,1.26c1.62,0.43,3.25,0.84,4.9,1.12c1.6,0.27,3.31,0.43,4.9,0.07
					c0.02,0,0.03-0.01,0.05-0.01c1.51-0.91,2.77-2.15,4.02-3.39c0.62-0.62,1.24-1.23,1.9-1.81c0.51-0.44,1.03-0.91,1.61-1.27
					c-1.59,0-3.2-0.33-4.78-0.53L31.55,36.37z"/>
				<path id="XMLID_1483_" class="st3" d="M34.12,30.94c0.01,0,0.02,0,0.04,0V30.9C34.15,30.91,34.13,30.92,34.12,30.94z"/>
			</g>
			<g id="XMLID_1470_">
				<g id="XMLID_1479_">
					<path id="XMLID_1481_" class="st3" d="M31.94,22.23c0,0.58-0.47,1.05-1.05,1.05H15.82c-0.58,0-1.05-0.47-1.05-1.05V2.32
						c0-0.58,0.47-1.05,1.05-1.05h15.07c0.58,0,1.05,0.47,1.05,1.05V22.23z"/>
					<path id="XMLID_1480_" class="st3" d="M46.03,22.23c0,0.58-0.47,1.05-1.05,1.05H29.91c-0.58,0-1.05-0.47-1.05-1.05V2.32
						c0-0.58,0.47-1.05,1.05-1.05h15.07c0.58,0,1.05,0.47,1.05,1.05V22.23z"/>
				</g>
				<path id="XMLID_1478_" class="st3" d="M32.38,23.51c0,1.09-0.89,1.98-1.98,1.98l0,0c-1.09,0-1.98-0.89-1.98-1.98v-2.2
					c0-1.09,0.89-1.98,1.98-1.98l0,0c1.09,0,1.98,0.89,1.98,1.98V23.51z"/>
				<rect id="XMLID_1477_" x="15.65" y="2.59" class="st4" width="29.5" height="20.26"/>
				<g id="XMLID_1475_">
					<path id="XMLID_1476_" class="st3" d="M30.5,21.34c-5.12-1.46-8.72-1.46-13.84,0c0-6.43,0-12.86,0-19.29
						c5.13-2.28,8.71-2.21,13.84,0C30.5,8.48,30.5,14.91,30.5,21.34z"/>
				</g>
				<g id="XMLID_1471_">
					<path id="XMLID_1474_" class="st3" d="M37.93,0.44c-0.17,0.08-0.35,0.2-0.62,0.37c-0.84,0.58-2.13,1.78-3.28,3.94
						c-0.91,1.71-1.56,3.66-2.04,5.61c-0.88,4.72-1.3,10.26-1.35,11c5.07-1.42,8.35-1.4,13.64,0.04c0-6.43,0-12.86,0-19.29
						C41.19,0.96,40.47,0.41,37.93,0.44z"/>
					<path id="XMLID_1473_" class="st3" d="M30.5,2.02c-0.08,0.03-0.03,0.06-0.11,0.1c0,6.43-0.19,12.86-0.18,19.29
						c0.05-0.01-0.03-0.03-0.03-0.04V2.11C30.18,2.08,30.47,2.05,30.5,2.02z"/>
					<path id="XMLID_1472_" class="st4" d="M37.35,0.81c0.26-0.18,0.47-0.3,0.63-0.37C35.59,0.46,32.95,1,30.5,2.02
						c-0.03,0.03-0.32,0.06-0.32,0.09v19.25v0.08c0,0,0.25-0.03,0.25-0.08c0.05-0.82,0.19-5.92,1.44-11c0.48-1.95,1.2-3.9,2.11-5.61
						C35.14,2.59,36.5,1.39,37.35,0.81z"/>
				</g>
			</g>
		</g>
	</g>
	<g id="XMLID_1245_">
		<g id="XMLID_1262_">
			<path id="XMLID_1466_" class="st3" d="M77.21,10.31c0,0.5-0.06,1.02-0.17,1.59l-1.78,8.95h-4.14l1.74-8.82
				c0.06-0.29,0.08-0.56,0.08-0.79c0-1.28-0.79-1.88-2.05-1.88c-1.55,0-2.82,0.92-3.22,2.89l-1.71,8.61h-4.14l1.76-8.82
				c0.06-0.31,0.08-0.59,0.08-0.84c0-1.25-0.71-1.84-1.92-1.84c-1.48,0-2.74,0.9-3.14,2.89l-1.71,8.61h-4.14l2.93-14.63h3.99
				l-0.36,1.71c1.09-1.3,2.55-2.01,4.47-2.01c1.94,0,3.26,0.71,3.87,2.05c1.25-1.36,2.91-2.05,4.89-2.05
				C75.35,5.92,77.21,7.45,77.21,10.31z"/>
			<path id="XMLID_1462_" class="st3" d="M92.58,17.79l-0.42,2.95c-0.65,0.21-1.28,0.29-1.92,0.29c-1.82,0-2.95-0.75-3.37-1.88
				c-0.92,1.21-2.22,1.88-3.83,1.88c-2.45,0-4.79-1.86-4.79-5.16c0-3.76,2.76-6.54,6.15-6.54c1.53,0,2.76,0.46,3.47,1.55l0.27-1.36
				h3.97l-1.42,7.05c-0.02,0.15-0.04,0.29-0.04,0.42c0,0.69,0.42,0.98,1.05,0.98C92.01,17.96,92.37,17.9,92.58,17.79z M84.13,8.11
				h-1.94c0.36-2.17,1.46-3.32,3.05-3.32c1.51,0,2.15,1.28,2.99,1.28c0.54,0,0.94-0.42,1.07-1.05h1.94
				C90.88,7.13,89.8,8.3,88.21,8.3c-1.53,0-2.15-1.3-2.99-1.3C84.65,7.01,84.28,7.45,84.13,8.11z M87.12,14.68
				c0-1.32-0.79-2.17-2.15-2.17c-1.57,0-2.7,1.28-2.7,3.18c0,1.32,0.79,2.15,2.15,2.15C86.01,17.84,87.12,16.56,87.12,14.68z"/>
			<path id="XMLID_1459_" class="st3" d="M93.67,15.87c0-3.74,2.91-6.54,6.96-6.54c3.62,0,5.94,2.03,5.94,5.14
				c0,3.76-2.91,6.56-6.96,6.56C95.99,21.04,93.67,18.99,93.67,15.87z M102.53,14.68c0-1.32-0.77-2.17-2.13-2.17
				c-1.59,0-2.7,1.28-2.7,3.18c0,1.32,0.77,2.15,2.13,2.15C101.42,17.84,102.53,16.56,102.53,14.68z"/>
			<path id="XMLID_1456_" class="st3" d="M68.26,30.16c0,0.54-0.04,1.11-0.17,1.71l-1.57,7.78h-4.14l0.65-3.24h-5.69l-0.65,3.24
				h-4.08l1.65-8.3c0.88-4.39,3.66-6.63,7.86-6.63C65.92,24.73,68.26,26.74,68.26,30.16z M63.68,33.22l0.31-1.61
				c0.08-0.42,0.13-0.79,0.13-1.13c0-1.57-0.88-2.32-2.38-2.32c-1.8,0-2.95,0.94-3.41,3.26l-0.36,1.8H63.68z"/>
			<path id="XMLID_1454_" class="st3" d="M89.88,31.98c0,0.44-0.04,0.9-0.15,1.4l-1.23,6.27h-3.97l1.17-5.85
				c0.06-0.29,0.08-0.54,0.08-0.79c0-1-0.52-1.51-1.42-1.51c-1.19,0-2.05,0.71-2.4,2.45l-1.15,5.71h-3.97l1.19-5.85
				c0.06-0.27,0.08-0.54,0.08-0.77c0-1-0.52-1.53-1.42-1.53c-1.21,0-2.07,0.73-2.43,2.49l-1.13,5.67h-3.97l2.26-11.33h3.76
				l-0.23,1.15c0.96-0.92,2.15-1.34,3.39-1.34c1.46,0,2.76,0.61,3.41,1.84c1.05-1.19,2.47-1.84,4.16-1.84
				C88.23,28.14,89.88,29.45,89.88,31.98z"/>
			<path id="XMLID_1451_" class="st3" d="M93.27,28.32h3.95l-2.26,11.33h-3.95L93.27,28.32z M93.52,25.1c0-1.28,1-2.26,2.55-2.26
				c1.4,0,2.3,0.82,2.3,1.9c0,1.36-1.02,2.32-2.57,2.32C94.4,27.07,93.52,26.19,93.52,25.1z"/>
			<path id="XMLID_1448_" class="st3" d="M111.98,28.32l-1.84,9.24c-0.9,4.49-3.49,6.33-7.48,6.33c-2.28,0-4.14-0.5-5.52-1.46
				l1.78-2.76c0.9,0.71,2.36,1.17,3.85,1.17c2.05,0,2.95-0.92,3.26-2.55l0.08-0.38c-0.84,0.75-1.9,1.15-3.16,1.15
				c-2.68,0-4.95-1.8-4.95-4.83c0-3.41,2.68-6.1,6.21-6.1c1.63,0,3.01,0.54,3.64,1.99l0.36-1.8H111.98z M106.8,33.17
				c0-1.11-0.77-1.86-2.11-1.86c-1.59,0-2.7,1.11-2.7,2.74c0,1.11,0.79,1.84,2.13,1.84C105.69,35.89,106.8,34.81,106.8,33.17z"/>
			<path id="XMLID_1263_" class="st3" d="M126.97,36.6l-0.42,2.95c-0.65,0.21-1.28,0.29-1.92,0.29c-1.82,0-2.95-0.75-3.37-1.88
				c-0.92,1.21-2.22,1.88-3.83,1.88c-2.45,0-4.79-1.86-4.79-5.16c0-3.76,2.76-6.54,6.15-6.54c1.53,0,2.76,0.46,3.47,1.55l0.27-1.36
				h3.97l-1.42,7.05c-0.02,0.15-0.04,0.29-0.04,0.42c0,0.69,0.42,0.98,1.05,0.98C126.41,36.77,126.76,36.71,126.97,36.6z
				 M121.52,33.49c0-1.32-0.79-2.17-2.15-2.17c-1.57,0-2.7,1.28-2.7,3.18c0,1.32,0.79,2.15,2.15,2.15
				C120.41,36.65,121.52,35.37,121.52,33.49z"/>
		</g>
		<g id="XMLID_1246_">
			<path id="XMLID_1259_" class="st3" d="M59.86,1.7c0,0.9-0.67,1.46-1.75,1.46H57.3v1.11h-0.93V0.24h1.74
				C59.19,0.24,59.86,0.8,59.86,1.7z M58.92,1.7c0-0.44-0.29-0.7-0.86-0.7H57.3v1.4h0.76C58.63,2.4,58.92,2.14,58.92,1.7z"/>
			<path id="XMLID_1256_" class="st3" d="M60.22,2.72c0-0.93,0.72-1.59,1.7-1.59c0.98,0,1.7,0.66,1.7,1.59
				c0,0.93-0.71,1.59-1.7,1.59C60.94,4.31,60.22,3.65,60.22,2.72z M62.71,2.72c0-0.54-0.34-0.86-0.79-0.86
				c-0.45,0-0.79,0.32-0.79,0.86c0,0.53,0.35,0.86,0.79,0.86C62.37,3.58,62.71,3.26,62.71,2.72z"/>
			<path id="XMLID_1254_" class="st3" d="M66.14,1.13v0.83c-0.07-0.01-0.13-0.01-0.2-0.01c-0.49,0-0.82,0.27-0.82,0.86v1.46h-0.9
				v-3.1h0.86v0.41C65.29,1.28,65.66,1.13,66.14,1.13z"/>
			<path id="XMLID_1252_" class="st3" d="M68.54,4.12c-0.18,0.13-0.45,0.2-0.72,0.2c-0.74,0-1.16-0.37-1.16-1.11V0.49h0.9v0.75h0.77
				v0.69h-0.77v1.26c0,0.26,0.14,0.41,0.38,0.41c0.13,0,0.26-0.04,0.37-0.11L68.54,4.12z"/>
			<path id="XMLID_1249_" class="st3" d="M72.09,1.17v3.1h-0.86V3.91c-0.22,0.27-0.55,0.4-0.97,0.4c-0.87,0-1.55-0.62-1.55-1.59
				s0.67-1.59,1.55-1.59c0.38,0,0.7,0.12,0.93,0.37V1.17H72.09z M71.21,2.72c0-0.54-0.35-0.86-0.79-0.86
				c-0.45,0-0.79,0.32-0.79,0.86c0,0.53,0.35,0.86,0.79,0.86C70.86,3.58,71.21,3.26,71.21,2.72z"/>
			<path id="XMLID_1247_" class="st3" d="M72.91,3.24V0h0.9v3.19c0,0.26,0.14,0.41,0.39,0.41c0.1,0,0.2-0.03,0.25-0.06l0.04,0.7
				c-0.16,0.05-0.31,0.07-0.47,0.07C73.33,4.31,72.91,3.94,72.91,3.24z"/>
		</g>
	</g>
</g>
</svg>
